:SAMPLES-PER-SECOND 30
:FRAME-RANGE 1-3358
:FULLY-SPECIFIED
:DEGREES
1784
root  50.0622 40.9655 -8.12905 -163.601 -88.9388 166.322
RightUpLeg  -3.50253 -16.3232 -7.92041
RightLeg  28.6584 1.35817 0.565865
RightFoot  2.04068 -3.07035 25.8783
RightToes  -5.8209e-011 0 -3.6325e-017
Spine  6.51568 -0.0886448 3.16075
Spine1  -5.87846 0.340682 -0.530842
HEad  11.6364 25.6616 -2.40224
LeftShoulder1  0.460953 1.42897 -15.3724
LeftArm  -43.2225 -20.9548 -5.72221
LeftForeArm  -9.93386 -9.57757 -9.41341
LeftHand  0.86724 0.315383 -19.8684
RightShoulder  2.21088 4.85926 20.0702
RightArm  -34.092 2.05867 -4.49262
RightForeArm  -26.9614 0.645588 8.0383
RightHand  1.08945 2.20618 16.3698
LeftUpLeg  -12.2427 29.7077 6.45513
LeftLeg  35.7826 -15.509 -11.3736
LeftFoot  4.00945 3.53928 -26.0355
LeftToes  -4.03819e-010 -8.71445e-011 8.52097e-011
1785
root  50.789 40.4322 -6.81226 -167.231 -84.9555 169.582
RightUpLeg  -1.00501 -13.2749 -8.30564
RightLeg  27.0378 0.53069 0.0570247
RightFoot  -2.56788 -1.84948 23.5649
RightToes  -5.8209e-011 0 -3.6325e-017
Spine  6.57304 0.0572928 3.65347
Spine1  -5.86645 0.88032 -1.8991
HEad  10.6521 27.0095 -2.15414
LeftShoulder1  0.420216 1.58484 -15.0233
LeftArm  -43.64 -21.7884 -4.05617
LeftForeArm  -10.2923 -9.73626 -9.4063
LeftHand  0.852935 0.411019 -19.9357
RightShoulder  2.3516 5.80938 18.7844
RightArm  -34.4796 2.88293 -4.79952
RightForeArm  -25.3819 0.0692441 7.88593
RightHand  1.03824 2.2837 15.4386
LeftUpLeg  -12.9311 27.3965 9.83403
LeftLeg  39.0968 -7.99076 -6.54863
LeftFoot  2.43568 2.36106 -19.5026
LeftToes  -4.03819e-010 -8.71445e-011 8.52097e-011
1786
root  51.5687 39.5281 -5.53043 -164.166 -81.0104 166.753
RightUpLeg  0.0902071 -10.0835 -9.90384
RightLeg  24.7488 -2.15175 -1.31374
RightFoot  -12.0459 0.0646086 23.6296
RightToes  -5.8209e-011 0 -3.6325e-017
Spine  6.18813 0.0441416 2.81001
Spine1  -5.54219 1.03729 -3.21601
HEad  8.21713 28.5581 -2.7022
LeftShoulder1  0.416504 1.59271 -14.9094
LeftArm  -44.241 -21.602 -2.1855
LeftForeArm  -10.3421 -10.1088 -9.2407
LeftHand  0.842734 0.394977 -19.6374
RightShoulder  2.49592 6.8128 17.6323
RightArm  -34.5839 3.67931 -4.59246
RightForeArm  -24.2403 0.208569 7.97995
RightHand  1.03513 2.43509 15.083
LeftUpLeg  -13.3756 24.7621 13.2215
LeftLeg  40.5627 -3.7917 -3.09696
LeftFoot  0.129612 1.44208 -14.3063
LeftToes  -4.03819e-010 -8.71445e-011 8.52097e-011
1787
root  52.4245 38.5045 -4.05179 -167.15 -77.5232 169.996
RightUpLeg  -2.47086 -7.74529 -11.6843
RightLeg  25.5262 -1.94867 -1.24786
RightFoot  -19.3564 1.32981 20.6623
RightToes  -5.8209e-011 0 -3.6325e-017
Spine  6.97143 -0.218334 3.50468
Spine1  -5.62347 0.998241 -4.04804
HEad  3.76081 29.5534 -4.63854
LeftShoulder1  0.408952 1.67179 -15.4856
LeftArm  -44.2799 -20.9178 -1.0258
LeftForeArm  -10.9403 -10.7354 -9.08804
LeftHand  0.829866 0.402239 -19.3734
RightShoulder  2.50224 7.30807 16.4857
RightArm  -33.9098 4.39947 -4.36185
RightForeArm  -22.985 1.18686 8.52222
RightHand  1.07535 2.69335 15.1497
LeftUpLeg  -12.9695 21.3631 17.4857
LeftLeg  39.7289 -1.08258 -0.59154
LeftFoot  -2.3429 0.801488 -9.98958
LeftToes  -4.03819e-010 -8.71445e-011 8.52097e-011
1788
root  53.3192 37.5071 -2.44517 -174.52 -73.8375 177.247
RightUpLeg  -6.40689 -4.38153 -12.1065
RightLeg  28.5449 -2.12498 -1.49269
RightFoot  -24.2593 2.20182 20.7072
RightToes  -5.8209e-011 0 -3.6325e-017
Spine  9.51747 -0.426522 5.33757
Spine1  -6.37909 1.04483 -4.91855
HEad  -0.698119 30.5942 -7.15043
LeftShoulder1  0.352962 1.98132 -16.419
LeftArm  -43.4446 -19.3568 -1.97982
LeftForeArm  -12.7585 -12.0812 -8.82344
LeftHand  0.75997 0.748671 -19.1542
RightShoulder  2.58087 7.43019 16.9878
RightArm  -32.9787 4.91686 -4.71572
RightForeArm  -21.8587 2.9391 9.27227
RightHand  1.11463 2.96689 15.1706
LeftUpLeg  -11.2106 17.4084 23.011
LeftLeg  37.4209 0.428335 0.716064
LeftFoot  -4.86855 0.467928 -7.75196
LeftToes  -4.03819e-010 -8.71445e-011 8.52097e-011
1789
root  54.1198 36.7021 -0.726928 179.441 -70.5419 -176.705
RightUpLeg  -12.213 -1.73528 -12.6439
RightLeg  34.3707 -1.01155 -1.00357
RightFoot  -24.3639 2.38383 22.0939
RightToes  -5.8209e-011 0 -3.6325e-017
Spine  11.3729 -0.63298 5.347
Spine1  -6.15145 0.676821 -3.16698
HEad  -5.32179 32.0649 -9.38356
LeftShoulder1  0.306315 2.24307 -17.6223
LeftArm  -42.5527 -17.0132 -4.06353
LeftForeArm  -13.7482 -12.4261 -8.72671
LeftHand  0.683916 1.12143 -18.8552
RightShoulder  2.92663 7.926 19.157
RightArm  -31.9691 5.09014 -4.98054
RightForeArm  -21.4631 4.27146 9.93263
RightHand  1.12053 3.09474 15.0125
LeftUpLeg  -9.28371 13.3414 27.7874
LeftLeg  34.6229 1.71342 1.62651
LeftFoot  -7.09044 0.332683 -7.81225
LeftToes  -4.03819e-010 -8.71445e-011 8.52097e-011
1790
root  54.6782 36.1673 1.14847 177.523 -69.2 -175.096
RightUpLeg  -15.2242 -1.47606 -14.9891
RightLeg  36.1239 0.330633 -0.00446329
RightFoot  -22.8041 2.30373 24.1742
RightToes  -5.8209e-011 0 -3.6325e-017
Spine  12.1581 -1.16446 3.2397
Spine1  -5.08789 -0.385769 -0.866363
HEad  -7.39034 32.6953 -9.29722
LeftShoulder1  0.455969 1.66798 -18.213
LeftArm  -42.4609 -14.9925 -6.23067
LeftForeArm  -14.2426 -10.3163 -9.02208
LeftHand  0.574069 1.71257 -18.5903
RightShoulder  3.20146 7.59318 22.6354
RightArm  -30.6509 4.80259 -4.01265
RightForeArm  -22.8565 4.82001 10.5217
RightHand  1.03544 2.57733 14.8075
LeftUpLeg  -8.40229 9.06928 28.854
LeftLeg  32.9123 2.70382 2.23445
LeftFoot  -8.63077 0.171503 -5.06106
LeftToes  -4.03819e-010 -8.71445e-011 8.52097e-011
1791
root  54.9994 35.8687 3.39477 177.611 -68.6485 -174.857
RightUpLeg  -16.6579 -1.89321 -18.4234
RightLeg  33.6922 1.18637 0.598697
RightFoot  -19.2867 1.79894 27.3168
RightToes  -5.8209e-011 0 -3.6325e-017
Spine  12.339 -1.68003 1.59491
Spine1  -4.85486 -1.41695 1.57342
HEad  -6.82284 32.0912 -6.93854
LeftShoulder1  0.620969 1.06199 -18.8591
LeftArm  -42.1924 -14.6807 -7.59071
LeftForeArm  -15.7124 -6.79585 -9.04092
LeftHand  0.413601 2.66004 -18.5864
RightShoulder  3.09177 6.07438 26.2555
RightArm  -28.3774 4.03405 -2.02666
RightForeArm  -26.4814 4.76419 11.3273
RightHand  0.873976 1.57704 14.374
LeftUpLeg  -8.63146 7.21605 27.2827
LeftLeg  32.3737 1.74813 1.54283
LeftFoot  -10.7166 0.144318 -14.678
LeftToes  -4.03819e-010 -8.71445e-011 8.52097e-011
1792
root  55.1529 35.7956 5.76925 178.326 -67.1016 -175.282
RightUpLeg  -16.5343 -1.15143 -21.9247
RightLeg  27.3077 0.991024 0.327284
RightFoot  -13.6352 0.525762 30.2681
RightToes  -5.8209e-011 0 -3.6325e-017
Spine  12.6545 -1.45733 0.345894
Spine1  -5.17748 -1.53061 2.21387
HEad  -5.98825 30.4709 -5.10275
LeftShoulder1  0.665825 0.920386 -19.2287
LeftArm  -41.6751 -15.0841 -8.76983
LeftForeArm  -16.1471 -4.68927 -8.80313
LeftHand  0.406785 2.72528 -18.7712
RightShoulder  2.87645 4.58094 29.674
RightArm  -27.2295 2.76708 -1.02296
RightForeArm  -28.7509 3.11232 11.4275
RightHand  0.813496 0.957928 14.7488
LeftUpLeg  -8.65444 9.0139 24.5712
LeftLeg  32.6031 0.411091 0.636427
LeftFoot  -19.6622 -1.68435 -24.4231
LeftToes  -4.03819e-010 -8.71445e-011 8.52097e-011
1793
root  55.2422 35.9732 8.10044 -179.152 -65.0797 -177.224
RightUpLeg  -15.156 1.03624 -25.5732
RightLeg  17.0821 -1.45496 -0.745968
RightFoot  -5.89696 -1.49758 29.98
RightToes  -5.8209e-011 0 -3.6325e-017
Spine  12.792 -0.534775 -2.63016
Spine1  -6.0072 -1.24035 3.84717
HEad  -6.47159 28.6441 -4.75559
LeftShoulder1  0.668597 0.889475 -19.0155
LeftArm  -40.7942 -13.4711 -10.5271
LeftForeArm  -15.5923 -5.99771 -9.16767
LeftHand  0.622133 1.71594 -20.1097
RightShoulder  2.89811 4.02512 32.6313
RightArm  -27.8273 1.42233 -1.54956
RightForeArm  -29.6406 0.34415 10.6508
RightHand  0.80714 0.786197 15.0594
LeftUpLeg  -11.6134 15.7054 21.067
LeftLeg  36.7703 -3.61593 -2.52567
LeftFoot  -22.7357 -2.08734 -22.036
LeftToes  -4.03819e-010 -8.71445e-011 8.52097e-011
